<svg xmlns="http://www.w3.org/2000/svg" xmlns:xlink="http://www.w3.org/1999/xlink" width="221.353" height="184.873" viewBox="0 0 221.353 184.873">
  <defs>
    <clipPath id="clip-path">
      <path id="Path_76" data-name="Path 76" d="M304.886,346.2c-.281,1.4-1.426,4.715-1.1,6.321,1.439,1.218,4.52,1.3,6.831.718s3.937.6,6.836.772c2.845.166,5.219-.625,5.8-1.816.633-1.3-4.337-2.306-7.724-3.346a15.422,15.422,0,0,1-5.748-3.033Z" fill="#228c7e"/>
    </clipPath>
    <clipPath id="clip-path-2">
      <path id="Path_83" data-name="Path 83" d="M260.628,334.348c-1.429.1-4.924-.129-6.386.612-.794,1.711-.059,4.7,1.114,6.779s.46,3.955,1.063,6.8c.592,2.788,1.983,4.867,3.285,5.112,1.421.267,1.077-4.792,1.185-8.334a15.425,15.425,0,0,1,1.4-6.345Z" fill="#03aa99"/>
    </clipPath>
    <clipPath id="clip-path-3">
      <path id="Path_92" data-name="Path 92" d="M267.325,336.285s25.657-13.9,27.379-15.234,12.038-36.684,12.833-38.966c0,0,7.6-6.192,8.651-11.1l-17.572-11.5c-1.343,2.887-1.332,4.813-4.91,12.036-3.417,6.9-4.653,26.325-7.939,42.789a29.826,29.826,0,0,0-5.281,2.06c-3.1,1.479-16.239,15.376-16.239,15.376A6.421,6.421,0,0,0,267.325,336.285Z" fill="none"/>
    </clipPath>
  </defs>
  <g id="Group_124" data-name="Group 124" transform="translate(1301.131 -5457.994)">
    <g id="Group_64" data-name="Group 64" transform="translate(-1554 5287.925)">
      <g id="Group_62" data-name="Group 62">
        <path id="Path_54" data-name="Path 54" d="M313.8,232.629c5.345,4.871,11.156,8.177,17.892,6.9,9.486-1.806,16.894-11.475,16.894-11.475a33.339,33.339,0,0,1,2.444,3.506c0,.319-6.269,12.75-17.638,15.3s-21.593-5.6-21.593-5.6Z" fill="#dd7a79"/>
      </g>
      <path id="Path_55" data-name="Path 55" d="M411.217,299.772a15.815,15.815,0,0,0,19.9,5.041l12.657-6.239a5.25,5.25,0,0,1,6.75,1.89L473.4,336.411a5.246,5.246,0,0,1-1.837,7.386c-7.4,4.186-22.68,11.268-39.506,9.9-23.617-1.924-38.993-23.883-65-64.751s-39.392-64.094-31.134-86.3c5.883-15.824,18.771-26.67,25.7-31.6a5.246,5.246,0,0,1,7.469,1.464L391.96,208.45a5.25,5.25,0,0,1-1.146,6.916L379.8,224.19a15.817,15.817,0,0,0-3.859,20.159Z" fill="#3b55ce"/>
      <path id="Path_56" data-name="Path 56" d="M381.545,222.794l9.269-7.428a5.25,5.25,0,0,0,1.146-6.916l-12.094-19L368.94,172.324a5.233,5.233,0,0,0-7.326-1.284,85.582,85.582,0,0,0-8.6,7.037Z" fill="#2339a0"/>
      <path id="Path_57" data-name="Path 57" d="M461.549,348.608a85.537,85.537,0,0,0,10.012-4.811,5.232,5.232,0,0,0,1.954-7.152L450.007,299.8a5.241,5.241,0,0,0-6.237-1.23l-10.761,5.3Z" fill="#2339a0"/>
      <g id="Group_63" data-name="Group 63">
        <path id="Path_58" data-name="Path 58" d="M314.148,232.9l4.33,3.243s1.953,5.988-1.345,9.1l-5.733-3.474Z" fill="#e09736"/>
      </g>
    </g>
    <g id="Group_113" data-name="Group 113" transform="translate(-1554 5287.925)">
      <g id="Group_94" data-name="Group 94">
        <g id="Group_80" data-name="Group 80">
          <g id="Group_73" data-name="Group 73">
            <path id="Path_71" data-name="Path 71" d="M323.254,352.193c.255.48.061,1.449-1.864,2.249s-5.408.462-6.791.19a8.334,8.334,0,0,0-4.274-.245c-2.049.429-5.4.241-6.422-.618-.353-.407-.115-1.25-.115-1.25Z" fill="#8fc9c6"/>
          </g>
          <g id="Group_78" data-name="Group 78">
            <path id="Path_72" data-name="Path 72" d="M304.886,346.2c-.281,1.4-1.426,4.715-1.1,6.321,1.439,1.218,4.52,1.3,6.831.718s3.937.6,6.836.772c2.845.166,5.219-.625,5.8-1.816.633-1.3-4.337-2.306-7.724-3.346a15.422,15.422,0,0,1-5.748-3.033Z" fill="#228c7e"/>
            <g id="Group_77" data-name="Group 77" clip-path="url(#clip-path)">
              <g id="Group_74" data-name="Group 74">
                <path id="Path_73" data-name="Path 73" d="M310.931,348.915a6.4,6.4,0,0,1,1.592-2.529" fill="none" stroke="#8fc9c6" stroke-linecap="round" stroke-miterlimit="10" stroke-width="0.525"/>
              </g>
              <g id="Group_75" data-name="Group 75">
                <path id="Path_74" data-name="Path 74" d="M313.509,349.938a6.389,6.389,0,0,1,1.592-2.529" fill="none" stroke="#8fc9c6" stroke-linecap="round" stroke-miterlimit="10" stroke-width="0.525"/>
              </g>
              <g id="Group_76" data-name="Group 76">
                <path id="Path_75" data-name="Path 75" d="M316.086,350.961a6.4,6.4,0,0,1,1.593-2.529" fill="none" stroke="#8fc9c6" stroke-linecap="round" stroke-miterlimit="10" stroke-width="0.525"/>
              </g>
            </g>
          </g>
          <g id="Group_79" data-name="Group 79">
            <path id="Path_77" data-name="Path 77" d="M304.886,340.593V346.2a2.535,2.535,0,0,1,.92.535c.271.318.641,1.376,1.1,1.394,1.811.075,2.879-2.313,2.879-2.313l.681-5.1Z" fill="#ff9a8d"/>
          </g>
        </g>
        <g id="Group_88" data-name="Group 88">
          <g id="Group_81" data-name="Group 81">
            <path id="Path_78" data-name="Path 78" d="M259.7,353.648c-.4.373-1.381.442-2.663-1.2s-1.874-5.093-1.978-6.5a8.333,8.333,0,0,0-.894-4.187c-.955-1.863-1.662-5.149-1.1-6.357.3-.448,1.175-.442,1.175-.442Z" fill="#aaeeed"/>
          </g>
          <g id="Group_86" data-name="Group 86">
            <path id="Path_79" data-name="Path 79" d="M260.628,334.348c-1.429.1-4.924-.129-6.386.612-.794,1.711-.059,4.7,1.114,6.779s.46,3.955,1.063,6.8c.592,2.788,1.983,4.867,3.285,5.112,1.421.267,1.077-4.792,1.185-8.334a15.425,15.425,0,0,1,1.4-6.345Z" fill="#03aa99"/>
            <g id="Group_85" data-name="Group 85" clip-path="url(#clip-path-2)">
              <g id="Group_82" data-name="Group 82">
                <path id="Path_80" data-name="Path 80" d="M259.606,340.9a6.406,6.406,0,0,1,2.86.867" fill="none" stroke="#aaeeed" stroke-linecap="round" stroke-miterlimit="10" stroke-width="0.525"/>
              </g>
              <g id="Group_83" data-name="Group 83">
                <path id="Path_81" data-name="Path 81" d="M259.3,343.653a6.392,6.392,0,0,1,2.86.867" fill="none" stroke="#aaeeed" stroke-linecap="round" stroke-miterlimit="10" stroke-width="0.525"/>
              </g>
              <g id="Group_84" data-name="Group 84">
                <path id="Path_82" data-name="Path 82" d="M259,346.41a6.392,6.392,0,0,1,2.86.867" fill="none" stroke="#aaeeed" stroke-linecap="round" stroke-miterlimit="10" stroke-width="0.525"/>
              </g>
            </g>
          </g>
          <g id="Group_87" data-name="Group 87">
            <path id="Path_84" data-name="Path 84" d="M264.247,331.746l-3.619,2.6a2.523,2.523,0,0,1-.272,1.029c-.236.345-1.157.982-1.055,1.427.407,1.766,2.992,2.165,2.992,2.165l5.032-2.684Z" fill="#ff9a8d"/>
          </g>
        </g>
        <g id="Group_89" data-name="Group 89">
          <path id="Path_85" data-name="Path 85" d="M315.713,260.738c-6.278,0-10.951.473-10.951.473-2.008.878-5.453,5.442-6.467,8.338s.49,6.946,1.02,9.438c2.947,13.884,5.963,23.53,7.108,29.034.7,3.366-1.8,3.9-1.819,9.238-.033,7.635.282,23.912.282,23.912a7.338,7.338,0,0,0,5.459.432s4.712-26.845,5.228-29.917c.837-4.982,1.127-7.072,1.221-15.692C316.926,283.871,315.713,260.738,315.713,260.738Z" fill="#1e4174"/>
        </g>
        <g id="Group_90" data-name="Group 90">
          <path id="Path_86" data-name="Path 86" d="M315.635,271.255c-1.05,4.914-8.094,10.825-8.094,10.825-.8,2.289-11.12,37.632-12.842,38.976s-27.373,15.225-27.373,15.225a5.807,5.807,0,0,1-2.436-2.562,7.29,7.29,0,0,1-.588-1.68,2.364,2.364,0,0,1-.042-.241.18.18,0,0,1-.011-.053s13.136-13.892,16.233-15.372a29.07,29.07,0,0,1,5.282-2.058V314.3c3.53-16.419,3.423-29.253,6.279-38.325a39.935,39.935,0,0,1,1.659-4.462c.735-1.607,1.291-2.951,1.743-4.1.189-.493.357-.945.514-1.376s.294-.829.41-1.2c.084-.253.157-.494.231-.714.325-1.03.556-1.859.808-2.647.116-.346.231-.682.357-1.029.074-.168.137-.346.21-.514s.147-.357.231-.536h.011v.011l4.9,3.654,2.363,1.753Z" fill="#85b8ed"/>
        </g>
        <g id="Group_91" data-name="Group 91">
          <path id="Path_87" data-name="Path 87" d="M305.483,264.828a23.33,23.33,0,0,1-2.993,3.213c-3.643,3.171-5.844,8.1-7.786,18.327-2.189,11.517-5.864,28.64-6.305,29.7s-3.675.662-9.6,4.988c-4.473,3.265-10.972,10.059-13.912,12.663a7.29,7.29,0,0,1-.588-1.68c-.021-.116-.032-.2-.042-.241a.18.18,0,0,1-.011-.053s13.136-13.892,16.233-15.372a29.07,29.07,0,0,1,5.282-2.058V314.3c3.369-16.419,3.423-29.253,6.279-38.325a37.774,37.774,0,0,1,1.669-4.452c.735-1.606,1.292-2.95,1.733-4.105.2-.493.367-.956.514-1.376s.294-.829.41-1.2c.084-.253.157-.494.231-.714.325-1.03.556-1.859.808-2.647.116-.346.231-.682.357-1.029.074-.168.137-.346.21-.514s.158-.346.242-.525v-.011l4.9,3.665Z" fill="#4e7eac"/>
        </g>
        <path id="Path_88" data-name="Path 88" d="M315.635,271.255s-3.21,4.206-12.037,4.536a18.714,18.714,0,0,1-9.977-2.218L296,269.839Z" fill="#4e7eac"/>
        <g id="Group_93" data-name="Group 93">
          <g id="Group_92" data-name="Group 92" clip-path="url(#clip-path-3)">
            <path id="Path_89" data-name="Path 89" d="M311.934,261.59c-3.7,4.744-8.413,7.619-10.372,10.871s-3.052,10.288-5.593,23.137c-2.524,12.765-4.824,21.458-5.522,22.226s-5.03,1.53-11.795,6.067A145.373,145.373,0,0,0,264.044,335.7" fill="none" stroke="#274d79" stroke-miterlimit="10" stroke-width="0.525"/>
            <path id="Path_90" data-name="Path 90" d="M307.841,272.822s-1.468,8.083-8.659,6.73" fill="none" stroke="#274d79" stroke-miterlimit="10" stroke-width="0.525"/>
            <path id="Path_91" data-name="Path 91" d="M265.64,329.225a9.106,9.106,0,0,0,4.336,6.989" fill="none" stroke="#274d79" stroke-miterlimit="10" stroke-width="0.525"/>
          </g>
        </g>
      </g>
      <g id="Group_98" data-name="Group 98">
        <g id="Group_97" data-name="Group 97">
          <g id="Group_95" data-name="Group 95">
            <path id="Path_93" data-name="Path 93" d="M306.711,224.648l6.08,5.209,3.484-8.27-7.24-4.179Z" fill="#ff9a8d"/>
          </g>
          <g id="Group_96" data-name="Group 96">
            <path id="Path_94" data-name="Path 94" d="M315.244,224.035s-7.168-2.009-6.209-6.626l7.24,4.178Z" fill="#ba5964"/>
          </g>
        </g>
      </g>
      <g id="Group_99" data-name="Group 99">
        <path id="Path_95" data-name="Path 95" d="M312.647,229.651a7.12,7.12,0,0,1,2.5,4.653c.33,2.938.591,7.336.839,13.721.225,5.8.809,22.62.809,22.62s-4.439,2.91-11.9,2.313c-7.122-.57-10.195-4.072-10.195-4.072s.742-23.656,3.083-32.967c3.458-9.6,8.924-11.271,8.924-11.271Z" fill="#ffc253"/>
      </g>
      <g id="Group_108" data-name="Group 108">
        <g id="Group_100" data-name="Group 100">
          <path id="Path_96" data-name="Path 96" d="M319.9,210.639c.375.648,2.336,3.4,2.972,4.2s-1.9,1.01-1.9,1.01Z" fill="#ba5964"/>
        </g>
        <g id="Group_101" data-name="Group 101">
          <path id="Path_97" data-name="Path 97" d="M309.035,217.409a16.456,16.456,0,0,0,.837,1.652c.426.707,6.39,3.127,7.964,3.318s3.663-.128,3.247-5.38-1.751-9.8-5.261-12.178-8.43.218-10.555,3.585S305.408,218.378,309.035,217.409Z" fill="#ff9a8d"/>
        </g>
        <g id="Group_102" data-name="Group 102">
          <path id="Path_98" data-name="Path 98" d="M309.035,217.409h0l-.776,2.418s-.6.288-2.123-1.6c-1.664-2.067-4.7-5.6-4.4-7.839.391-2.942,3.762-4,3.762-4a15.038,15.038,0,0,1,8.441-8.325c6.723-2.888,9.694,1.973,4.526,5.56,0,0,3.6,1.795,1.325,3.157s-8.758,1.192-8.758,1.192,3.185,1.217,2.237,2.118-5.058.53-5.058.53l.514,2.071a2.621,2.621,0,0,0-2.58.571C305.059,214.557,306.723,218.09,309.035,217.409Z" fill="#001c45"/>
        </g>
        <g id="Group_103" data-name="Group 103">
          <path id="Path_99" data-name="Path 99" d="M304.834,200.056s-2,4.336,1.76,7.252c0,0-3.753-.119-4.55-3.679" fill="none" stroke="#001c45" stroke-linecap="round" stroke-miterlimit="10" stroke-width="0.788"/>
        </g>
        <g id="Group_107" data-name="Group 107">
          <g id="Group_104" data-name="Group 104">
            <path id="Path_100" data-name="Path 100" d="M317.265,211.682a.648.648,0,1,0-.4.823A.647.647,0,0,0,317.265,211.682Z" fill="#001c45"/>
            <path id="Path_101" data-name="Path 101" d="M317.32,209.9l-2.6,1.706a1.548,1.548,0,0,1,.686-1.568A1.751,1.751,0,0,1,317.32,209.9Z" fill="#001c45"/>
          </g>
          <g id="Group_105" data-name="Group 105">
            <path id="Path_102" data-name="Path 102" d="M306.962,213.9a1.519,1.519,0,0,1,1.334-.219c.148.064,0,.322-.132.311-.724-.059-1.537.133-1.645.991-.006.046-.046.011-.049-.018A1.112,1.112,0,0,1,306.962,213.9Z" fill="#ba5964"/>
          </g>
          <g id="Group_106" data-name="Group 106">
            <path id="Path_103" data-name="Path 103" d="M307.285,213.878c.063-.055.28.08.279.135a.92.92,0,0,0-.27.416,1.228,1.228,0,0,0,.053.786,1.378,1.378,0,0,0,1.417.975c.012,0,.041.027.023.037a1.322,1.322,0,0,1-1.575-.564A1.414,1.414,0,0,1,307.285,213.878Z" fill="#ba5964"/>
          </g>
        </g>
      </g>
      <g id="Group_109" data-name="Group 109">
        <path id="Path_104" data-name="Path 104" d="M304.074,229.911c-1.471.778-3.4,5.024-2.03,9.612s3.151,9.32,3.151,9.32,7.087-1.674,8.953-6.189c0,0-2.5-6.117-3.668-8.592S307.791,227.945,304.074,229.911Z" fill="#e09736"/>
      </g>
      <g id="Group_110" data-name="Group 110">
        <path id="Path_105" data-name="Path 105" d="M311.491,256.545a20.025,20.025,0,0,0,4.963,3.817c-.1-2.674-.2-4.934-.286-7.411l-5.3-7.045-3.487-.943-1.251,3.614S308.952,254.005,311.491,256.545Z" fill="#e09736"/>
      </g>
      <g id="Group_111" data-name="Group 111">
        <path id="Path_106" data-name="Path 106" d="M305.749,229.857c-3.351.89-4.493,5.7-1.121,13.143,3.233,7.139,8.444,13.674,11.647,15.9s15.611,1.5,25.988-1.571c0,0,5.913-2.123,7.558-3.58,3.664-3.247,3.843-7.559,1.153-6.918s-6.938,3.556-6.938,3.556-1.127-2.219-1.945-3.947c0,0-.727.19-.983,1.727s-.233,3.68-.681,3.992c-1.192.831-17.825,2.231-19.812.273-2.249-2.217-5.509-8.1-7.824-13.532C310.232,232.9,309.176,228.947,305.749,229.857Z" fill="#ff9a8d"/>
      </g>
      <g id="Group_112" data-name="Group 112">
        <path id="Path_107" data-name="Path 107" d="M304.628,229.108c-1.472.779-3.4,5.025-2.031,9.612s3.152,9.321,3.152,9.321,6.653-1.007,9.477-4.828c0,0-3.028-7.478-4.193-9.954S308.344,227.142,304.628,229.108Z" fill="#ffc253"/>
      </g>
    </g>
  </g>
</svg>
